<?xml version="1.0" encoding="UTF-8"?>
<svg id="Layer_2" data-name="Layer 2" xmlns="http://www.w3.org/2000/svg" xmlns:xlink="http://www.w3.org/1999/xlink" viewBox="0 0 1713.47 361.84">
  <defs>
    <style>
      .cls-1 {
        fill: url(#linear-gradient-2);
      }

      .cls-2 {
        fill: #fff;
      }

      .cls-3 {
        fill: url(#linear-gradient-4);
      }

      .cls-4 {
        fill: url(#linear-gradient-3);
      }

      .cls-5 {
        fill: url(#linear-gradient-5);
      }

      .cls-6 {
        fill: #9275e0;
      }

      .cls-7 {
        fill: url(#linear-gradient-8);
      }

      .cls-8 {
        fill: url(#linear-gradient-7);
      }

      .cls-9 {
        fill: url(#linear-gradient-6);
      }

      .cls-10 {
        fill: url(#linear-gradient);
      }
    </style>
    <linearGradient id="linear-gradient" x1="150.87" y1="359.79" x2="150.87" y2="274.81" gradientTransform="translate(0 334.06) scale(1 -1)" gradientUnits="userSpaceOnUse">
      <stop offset="0" stop-color="#9275e0"/>
      <stop offset="1" stop-color="#6c43d0"/>
    </linearGradient>
    <linearGradient id="linear-gradient-2" x1="148.75" y1="-47.44" x2="147.99" y2="151.64" xlink:href="#linear-gradient"/>
    <linearGradient id="linear-gradient-3" x1="199.96" y1="175.04" x2="302.01" y2="175.04" xlink:href="#linear-gradient"/>
    <linearGradient id="linear-gradient-4" x1="36.92" y1="151.07" x2="42" y2="264.19" xlink:href="#linear-gradient"/>
    <linearGradient id="linear-gradient-5" x1="72.86" y1="144.98" x2="249.85" y2="266.38" xlink:href="#linear-gradient"/>
    <linearGradient id="linear-gradient-6" x1="180.96" y1="283.87" x2="307.58" y2="221.58" xlink:href="#linear-gradient"/>
    <linearGradient id="linear-gradient-7" x1="146.41" y1="216.72" x2="61.56" y2="263.75" xlink:href="#linear-gradient"/>
    <linearGradient id="linear-gradient-8" x1="165.34" y1="214.81" x2="44.47" y2="121.83" xlink:href="#linear-gradient"/>
  </defs>
  <g id="Layer_1-2" data-name="Layer 1">
    <g>
      <g>
        <path class="cls-10" d="M301.55,93.72c-9.09-14.6-22.88-24.87-41.4-30.34-1.82-.53-3.61-1-5.4-1.42-2.09-2.25-4.32-4.42-6.67-6.48-21.6-18.96-52.87-28.98-90.42-28.98H26.68v45.92c-4.03,2.66-7.85,5.75-11.4,9.25-6.46,6.38-11.5,13.68-15.11,21.51V0h157.49c44.09,0,81.4,12.3,107.9,35.57,13.12,11.51,23.25,25.42,30.14,41.33,2.35,5.41,4.3,11.03,5.85,16.82h0Z"/>
        <path class="cls-1" d="M296.48,180.67c-7.82,18.81-20.34,35.02-37.27,48.01-27.79,21.3-65.52,32.55-109.12,32.55h-45.75v100.61H.17v-197.21c2.15,4.66,4.84,9.14,8.06,13.38,5.34,7.04,11.6,12.84,18.46,17.41v139.91h51.16v-100.61h72.25c37.14,0,70.14-9.6,92.93-27.05,12.68-.73,25.29-4.71,36.44-11.9,6.53-4.2,12.24-9.32,17.01-15.11h0Z"/>
        <path class="cls-4" d="M274.29,193.24c-25.16,16.2-57.98,15.43-81.46-2.99-3.87-3.04-8.27-6.94-12.79-11.15l19.51-18.27c2.29,2.29,4.48,4.37,6.44,6.1,14.33,12.67,31.04,14.88,48.59,7.03,16.68-7.47,26.68-24.31,25.42-42.52-.44-6.32-1.81-12.01-4.1-17.03l27.59-1.16c.5,1.6.95,3.23,1.36,4.91,7.04,28.58-5.45,58.91-30.55,75.08Z"/>
        <path class="cls-3" d="M75.15,204.58c-22.8,1.33-45.75-8.35-60.96-28.38-21.24-28-18.35-67.6,6.77-92.39,12.05-11.89,27.44-18.8,43.27-20.43l.52,26.5c-4.08.71-8.22,2.01-12.42,3.87-16.37,7.28-26.44,24.05-25.71,41.64.75,18.33,12,34.03,29.29,40.06,5.43,1.89,10.66,2.86,15.71,2.94l3.52,26.19h0Z"/>
        <path class="cls-6" d="M199.55,160.84l-19.51,18.27c-7.81-7.24-16-15.38-22.51-21.5,6.73-6.7,12.54-12.48,20.13-20.05,5.89,6.38,14.45,15.87,21.89,23.27Z"/>
        <path class="cls-5" d="M276.53,75.8c-18.44-5.64-38.4,3.51-55.1,15.69-6.6,2.29-12.79,6.34-18.52,12.01-27.03,26.69-53.75,53.68-80.98,80.16-13.43,13.06-30.07,19.96-46.78,20.92l-3.52-26.19c11.88.19,22.66-4.61,32.21-14.01,27.27-26.84,54.1-54.12,81.63-80.69,19.78-19.09,43.71-25.27,70.31-17.42,7.79,2.31,14.72,5.49,20.76,9.52h-.03Z"/>
        <path class="cls-9" d="M303.48,113.26l-27.59,1.16c-4.64-10.19-13.06-17.67-25.13-22.09-10.47-3.83-20.29-3.98-29.33-.83,16.7-12.18,36.65-21.33,55.1-15.69,13.02,8.69,22,21.3,26.95,37.45h0Z"/>
        <path class="cls-8" d="M149.86,111.31c-6.76,6.1-12.99,11.73-21.08,19.04-5.31-5.77-14.54-16.32-22.29-24.12-1.99-2.01-3.88-3.83-5.59-5.34-10.9-9.68-23.17-13.27-36.16-10.99l-.52-26.5c17.33-1.76,35.19,2.81,49.77,14.13,3.82,2.96,8.21,6.92,12.74,11.23,8.06,7.65,16.58,16.39,23.12,22.54h0Z"/>
        <path class="cls-7" d="M122.14,146.25c-6.03,6-12.24,11.81-18.28,17.78-5.73,5.66-11.95,9.91-18.55,12.21-16.7,12.18-36.62,21.13-55.07,15.49,6.05,4.04,12.97,7.22,20.76,9.52,26.6,7.86,50.52,1.67,70.31-17.42,5.92-5.71,11.8-11.46,17.66-17.23-5.22-7.28-10.35-14.38-16.84-20.37h0Z"/>
      </g>
      <g>
        <g>
          <path class="cls-2" d="M410.62,321.29l5.83-7.25c6.9,6.9,15.34,11.77,26.75,11.77,12.6,0,19.02-6.9,19.02-14.27,0-8.68-7.73-12.13-21.99-15.46-16.41-3.8-26.75-8.92-26.75-23.06,0-13.08,11.65-23.3,27.34-23.3,12.13,0,21.16,4.75,28.65,11.65l-5.71,7.25c-6.78-6.54-14.86-10.46-23.42-10.46-10.1,0-17.48,6.66-17.48,14.15,0,8.44,8.08,11.41,21.99,14.74,15.57,3.68,26.75,9.27,26.75,23.66,0,12.96-9.75,23.54-28.77,23.54-13.43,0-24.01-4.87-32.22-12.96Z"/>
          <path class="cls-2" d="M541.99,260.07h-27.46v-8.8h64.2v8.8h-27.46v72.87h-9.27v-72.87Z"/>
          <path class="cls-2" d="M674.54,314.4h-45.53l-8.2,18.55h-10.1l36.02-81.67h10.1l36.02,81.67h-10.1l-8.2-18.55ZM670.74,305.6l-18.9-42.92-19.02,42.92h37.92Z"/>
          <path class="cls-2" d="M778.21,302.75l21.16,30.2h-10.58l-20.69-29.36h-21.64v29.36h-9.27v-81.67h33.17c16.88,0,30.08,10.82,30.08,26.15,0,12.84-9.27,22.59-22.23,25.32ZM746.47,294.78h22.23c13.31,0,22.35-6.42,22.35-17.36s-9.03-17.36-22.35-17.36h-22.23v34.71Z"/>
          <path class="cls-2" d="M869.04,260.07h-27.46v-8.8h64.2v8.8h-27.46v72.87h-9.27v-72.87Z"/>
          <path class="cls-2" d="M952.49,299.06v-47.79h9.27v47.79c0,15.69,10.34,26.87,24.85,26.87s24.85-11.17,24.85-26.87v-47.79h9.27v47.79c0,20.68-14.15,35.31-34.12,35.31s-34.12-14.62-34.12-35.31Z"/>
          <path class="cls-2" d="M1071.5,251.27h33.17c16.88,0,30.08,10.82,30.08,26.15s-13.2,26.15-30.08,26.15h-23.9v29.36h-9.27v-81.67ZM1103,294.78c13.31,0,22.35-6.42,22.35-17.36s-9.04-17.36-22.35-17.36h-22.23v34.71h22.23Z"/>
          <path class="cls-2" d="M1237.46,314.4h-45.53l-8.2,18.55h-10.1l36.02-81.67h10.1l36.02,81.67h-10.1l-8.2-18.55ZM1233.66,305.6l-18.9-42.92-19.02,42.92h37.92Z"/>
          <path class="cls-2" d="M1316.16,260.07h-27.46v-8.8h64.2v8.8h-27.46v72.87h-9.27v-72.87Z"/>
          <path class="cls-2" d="M1465.48,251.27v81.67h-9.27v-37.21h-48.15v37.21h-9.27v-81.67h9.27v35.67h48.15v-35.67h9.27Z"/>
          <path class="cls-2" d="M1512.2,292.05c0-22.94,19.26-42.2,41.85-42.2s41.73,19.26,41.73,42.2-19.02,42.32-41.73,42.32-41.85-19.38-41.85-42.32ZM1586.39,292.05c0-18.19-14.74-33.64-32.33-33.64s-32.46,15.45-32.46,33.64,14.86,33.76,32.46,33.76,32.33-15.46,32.33-33.76Z"/>
          <path class="cls-2" d="M1644.29,251.27h9.27l50.64,66.46v-66.46h9.27v81.67h-9.27l-50.64-66.46v66.46h-9.27v-81.67Z"/>
        </g>
        <g>
          <path class="cls-2" d="M533.59,89.68c0,33.01-24.75,53.53-64.32,53.53h-29.83v40.83h-34.28V35.94h64.11c39.57,0,64.32,20.52,64.32,53.74ZM498.89,89.68c0-16.3-10.58-25.81-31.53-25.81h-27.93v51.42h27.93c20.95,0,31.53-9.52,31.53-25.6Z"/>
          <path class="cls-2" d="M672.6,156.54v27.5h-114.68V35.94h111.93v27.5h-77.86v32.16h68.77v26.66h-68.77v34.28h80.61,0Z"/>
          <path class="cls-2" d="M794.27,184.05l-28.56-41.26h-31.53v41.26h-34.28V35.94h64.11c39.57,0,64.32,20.52,64.32,53.74,0,22.22-11.22,38.51-30.47,46.76l33.22,47.61h-36.82ZM762.11,63.87h-27.93v51.63h27.93c20.95,0,31.53-9.73,31.53-25.81s-10.58-25.81-31.53-25.81h0Z"/>
          <path class="cls-2" d="M843.78,169.45l11.64-25.81c12.48,9.1,31.1,15.44,48.88,15.44,20.31,0,28.56-6.77,28.56-15.87,0-27.72-86.12-8.68-86.12-63.69,0-25.18,20.32-46.13,62.42-46.13,18.62,0,37.67,4.44,51.42,13.12l-10.58,26.03c-13.75-7.83-27.93-11.64-41.05-11.64-20.32,0-28.14,7.62-28.14,16.93,0,27.3,86.12,8.46,86.12,62.84,0,24.76-20.52,45.91-62.84,45.91-23.48,0-47.18-6.98-60.3-17.14h0Z"/>
          <path class="cls-2" d="M990.42,35.94h34.28v148.11h-34.28V35.94Z"/>
          <path class="cls-2" d="M1048.18,169.45l11.64-25.81c12.48,9.1,31.1,15.44,48.87,15.44,20.32,0,28.56-6.77,28.56-15.87,0-27.72-86.12-8.68-86.12-63.69,0-25.18,20.31-46.13,62.42-46.13,18.62,0,37.67,4.44,51.42,13.12l-10.58,26.03c-13.75-7.83-27.93-11.64-41.05-11.64-20.31,0-28.14,7.62-28.14,16.93,0,27.3,86.12,8.46,86.12,62.84,0,24.76-20.52,45.91-62.84,45.91-23.48,0-47.18-6.98-60.3-17.14h0Z"/>
          <path class="cls-2" d="M1223.38,63.87h-47.4v-27.93h129.07v27.93h-47.4v120.19h-34.28V63.87Z"/>
        </g>
      </g>
    </g>
  </g>
</svg>